<svg width="242" height="67" viewBox="0 0 242 67" fill="none" xmlns="http://www.w3.org/2000/svg">
<path d="M240.463 20.5308C240.881 24.4577 238.14 28.6735 232.464 32.9484C226.817 37.2011 218.404 41.4025 207.828 45.3115C186.683 53.1266 157 59.733 123.792 63.2669C90.585 66.8007 60.1756 66.5893 37.8597 63.3991C26.6979 61.8035 17.5897 59.4665 11.1742 56.4975C4.72527 53.513 1.15848 49.9684 0.740581 46.0415C0.322685 42.1146 3.06364 37.8988 8.74007 33.6239C14.387 29.3713 22.7994 25.1698 33.3755 21.2608C54.5202 13.4457 84.2041 6.83928 117.411 3.30544C150.619 -0.228399 181.028 -0.0170095 203.344 3.17318C214.506 4.76883 223.614 7.1058 230.029 10.0748C236.478 13.0593 240.045 16.6039 240.463 20.5308Z" stroke="black"/>
</svg>
