<svg width="88" height="88" viewBox="0 0 88 88" fill="none" xmlns="http://www.w3.org/2000/svg">
<path d="M44 0L48.2996 23.7719L61.8964 3.804L56.1554 27.2695L76.6984 14.5583L61.9094 33.66L85.8465 30.4033L64.5667 41.8384L87.759 48.5993L63.6678 50.3905L82.1051 66L59.3682 57.8376L69.8625 79.5967L52.4113 62.8921L53.1481 87.0385L44 64.68L34.8519 87.0385L35.5887 62.8921L18.1374 79.5967L28.6318 57.8376L5.89488 66L24.3322 50.3905L0.241035 48.5993L23.4333 41.8384L2.15351 30.4033L26.0906 33.66L11.3016 14.5583L31.8446 27.2695L26.1036 3.804L39.7004 23.7719L44 0Z" fill="#776D8A"/>
</svg>
